<svg width="20" height="20" viewBox="0 0 20 20" fill="none" xmlns="http://www.w3.org/2000/svg">
<path d="M2.29243 6.35553C2.61993 6.10365 3.08925 6.16415 3.34223 6.49029L3.34478 6.49349C3.34816 6.49771 3.35472 6.50581 3.36448 6.51748C3.38399 6.54081 3.41624 6.57837 3.46135 6.62765C3.55162 6.72627 3.69298 6.87141 3.88633 7.04332C4.27335 7.38742 4.86585 7.83627 5.67161 8.23503C6.72929 8.75847 8.16282 9.20003 9.99966 9.20003C11.8365 9.20003 13.27 8.75847 14.3277 8.23503C15.1335 7.83627 15.726 7.38742 16.113 7.04332C16.3063 6.87141 16.4477 6.72627 16.538 6.62765C16.5831 6.57837 16.6153 6.54081 16.6349 6.51748C16.6446 6.50581 16.6512 6.49771 16.6545 6.49349L16.6568 6.49069C16.9098 6.16453 17.3794 6.10364 17.7069 6.35553C18.0352 6.60805 18.0967 7.07893 17.8442 7.40727L17.8429 7.40892L17.8413 7.41097L17.8372 7.41627L17.8251 7.4315C17.8153 7.44369 17.8021 7.45988 17.7855 7.47974C17.7523 7.51945 17.7053 7.5739 17.6444 7.64044C17.5227 7.77345 17.3449 7.9552 17.1097 8.16431C16.758 8.477 16.2764 8.85225 15.6607 9.21715L16.8819 11.609C17.0703 11.9779 16.9239 12.4297 16.555 12.618C16.1861 12.8064 15.7343 12.66 15.546 12.2911L14.317 9.88408C13.3369 10.2842 12.1493 10.5947 10.7497 10.6779V12.95C10.7497 13.3642 10.4139 13.7 9.99966 13.7C9.58545 13.7 9.24966 13.3642 9.24966 12.95V10.6779C7.85001 10.5947 6.66248 10.2842 5.68229 9.88408L4.45335 12.2911C4.265 12.66 3.81324 12.8064 3.44433 12.618C3.07542 12.4297 2.92905 11.9779 3.11741 11.609L4.33861 9.21715C3.72289 8.85225 3.24133 8.477 2.88965 8.16431C2.65445 7.9552 2.47664 7.77345 2.35489 7.64044C2.29398 7.5739 2.24701 7.51945 2.2138 7.47974C2.19719 7.45988 2.18402 7.44369 2.17425 7.4315L2.16216 7.41627L2.15802 7.41097L2.15643 7.40892L2.15575 7.40804C1.90323 7.0797 1.96409 6.60805 2.29243 6.35553Z" fill="#3F434A"/>
</svg>
