<svg width="220" height="220" viewBox="0 0 220 220" fill="none" xmlns="http://www.w3.org/2000/svg">
<circle cx="110" cy="110" r="110" fill="#F8F8F8"/>
<path d="M144.712 153.023L97.8601 126.094C94.3867 124.093 91.5723 118.745 91.5723 114.142V82.4556C91.5723 77.8526 94.3867 75.7847 97.8601 77.7303L144.712 104.659C148.186 106.66 151 112.008 151 116.611V148.297C151 152.9 148.186 155.013 144.712 153.023Z" fill="#E8A30A"/>
<path d="M128.148 165.654L149.078 153.191L136.391 124.539L116.689 134.234L128.148 165.654Z" fill="#E8A30A"/>
<path d="M73.5566 89.461L94.2072 77.1977L99.3783 115.377L73.5566 89.461Z" fill="#E8A30A"/>
<path d="M124.185 165.253L77.2767 138.325C73.8033 136.334 71 130.987 71 126.384V94.6746C71 90.0717 73.8033 88.0037 77.2767 89.9494L124.185 116.889C127.647 118.879 130.461 124.227 130.461 128.83V160.516C130.461 165.119 127.647 167.243 124.185 165.253Z" fill="#F9CB07"/>
<path d="M96.5979 89.0269V64.9561C96.5979 55.1832 103.489 51.2251 111.988 56.0615C120.487 60.9424 127.378 72.8277 127.378 82.5895V106.66" stroke="#CC8B09" stroke-width="10.46" stroke-miterlimit="10"/>
<path d="M96.3864 93.118C100.155 93.118 103.21 91.3608 103.21 89.1933C103.21 87.0257 100.155 85.2686 96.3864 85.2686C92.6177 85.2686 89.5625 87.0257 89.5625 89.1933C89.5625 91.3608 92.6177 93.118 96.3864 93.118Z" fill="#CC8B09"/>
<path d="M127.379 109.507C131.147 109.507 134.203 107.75 134.203 105.582C134.203 103.414 131.147 101.657 127.379 101.657C123.61 101.657 120.555 103.414 120.555 105.582C120.555 107.75 123.61 109.507 127.379 109.507Z" fill="#CC8B09"/>
</svg>
